<svg xmlns="http://www.w3.org/2000/svg" xmlns:xlink="http://www.w3.org/1999/xlink" width="180" zoomAndPan="magnify" viewBox="0 0 135 135.000003" height="180" preserveAspectRatio="xMidYMid meet" version="1.0"><defs><g/><clipPath id="b868ddb425"><path d="M 0.496094 0 L 134.503906 0 L 134.503906 134.007812 L 0.496094 134.007812 Z M 0.496094 0 " clip-rule="nonzero"/></clipPath><clipPath id="ee548c5efe"><path d="M 0.195312 0.457031 L 120.855469 0.457031 L 120.855469 25.550781 L 0.195312 25.550781 Z M 0.195312 0.457031 " clip-rule="nonzero"/></clipPath><clipPath id="c2545c69b1"><path d="M 6.152344 0.457031 L 114.847656 0.457031 C 118.136719 0.457031 120.804688 3.125 120.804688 6.414062 L 120.804688 19.59375 C 120.804688 22.882812 118.136719 25.550781 114.847656 25.550781 L 6.152344 25.550781 C 2.863281 25.550781 0.195312 22.882812 0.195312 19.59375 L 0.195312 6.414062 C 0.195312 3.125 2.863281 0.457031 6.152344 0.457031 Z M 6.152344 0.457031 " clip-rule="nonzero"/></clipPath><clipPath id="d43a40da59"><path d="M 0.195312 0.457031 L 120.855469 0.457031 L 120.855469 25.550781 L 0.195312 25.550781 Z M 0.195312 0.457031 " clip-rule="nonzero"/></clipPath><clipPath id="ee8ed5cc6d"><path d="M 6.152344 0.457031 L 114.847656 0.457031 C 118.136719 0.457031 120.804688 3.125 120.804688 6.414062 L 120.804688 19.59375 C 120.804688 22.882812 118.136719 25.550781 114.847656 25.550781 L 6.152344 25.550781 C 2.863281 25.550781 0.195312 22.882812 0.195312 19.59375 L 0.195312 6.414062 C 0.195312 3.125 2.863281 0.457031 6.152344 0.457031 Z M 6.152344 0.457031 " clip-rule="nonzero"/></clipPath><clipPath id="14bf35fab3"><rect x="0" width="121" y="0" height="26"/></clipPath><clipPath id="e54cbac554"><path d="M 4.304688 3.808594 L 7.808594 3.808594 L 7.808594 7.3125 L 4.304688 7.3125 Z M 4.304688 3.808594 " clip-rule="nonzero"/></clipPath><clipPath id="28047b2f5a"><path d="M 6.054688 3.808594 C 5.089844 3.808594 4.304688 4.59375 4.304688 5.558594 C 4.304688 6.527344 5.089844 7.3125 6.054688 7.3125 C 7.023438 7.3125 7.808594 6.527344 7.808594 5.558594 C 7.808594 4.59375 7.023438 3.808594 6.054688 3.808594 Z M 6.054688 3.808594 " clip-rule="nonzero"/></clipPath><clipPath id="6d26c6f8be"><path d="M 0.304688 0.808594 L 3.808594 0.808594 L 3.808594 4.3125 L 0.304688 4.3125 Z M 0.304688 0.808594 " clip-rule="nonzero"/></clipPath><clipPath id="79ae67e518"><path d="M 2.054688 0.808594 C 1.089844 0.808594 0.304688 1.59375 0.304688 2.558594 C 0.304688 3.527344 1.089844 4.3125 2.054688 4.3125 C 3.023438 4.3125 3.808594 3.527344 3.808594 2.558594 C 3.808594 1.59375 3.023438 0.808594 2.054688 0.808594 Z M 2.054688 0.808594 " clip-rule="nonzero"/></clipPath><clipPath id="2bb1d3e6c3"><rect x="0" width="4" y="0" height="5"/></clipPath><clipPath id="1c229329b6"><path d="M 114.082031 18.136719 L 117.582031 18.136719 L 117.582031 21.640625 L 114.082031 21.640625 Z M 114.082031 18.136719 " clip-rule="nonzero"/></clipPath><clipPath id="e0b42f9289"><path d="M 115.832031 18.136719 C 114.867188 18.136719 114.082031 18.921875 114.082031 19.890625 C 114.082031 20.855469 114.867188 21.640625 115.832031 21.640625 C 116.800781 21.640625 117.582031 20.855469 117.582031 19.890625 C 117.582031 18.921875 116.800781 18.136719 115.832031 18.136719 Z M 115.832031 18.136719 " clip-rule="nonzero"/></clipPath><clipPath id="33fb17cc36"><path d="M 0.0820312 0.136719 L 3.582031 0.136719 L 3.582031 3.640625 L 0.0820312 3.640625 Z M 0.0820312 0.136719 " clip-rule="nonzero"/></clipPath><clipPath id="1783d1c210"><path d="M 1.832031 0.136719 C 0.867188 0.136719 0.0820312 0.921875 0.0820312 1.890625 C 0.0820312 2.855469 0.867188 3.640625 1.832031 3.640625 C 2.800781 3.640625 3.582031 2.855469 3.582031 1.890625 C 3.582031 0.921875 2.800781 0.136719 1.832031 0.136719 Z M 1.832031 0.136719 " clip-rule="nonzero"/></clipPath><clipPath id="88fd670e49"><rect x="0" width="4" y="0" height="4"/></clipPath><clipPath id="ac00910fa2"><rect x="0" width="121" y="0" height="26"/></clipPath></defs><g clip-path="url(#b868ddb425)"><path fill="#ffffff" d="M 0.496094 0 L 134.503906 0 L 134.503906 134.007812 L 0.496094 134.007812 Z M 0.496094 0 " fill-opacity="1" fill-rule="nonzero"/><path fill="#223628" d="M 0.496094 0 L 134.503906 0 L 134.503906 134.007812 L 0.496094 134.007812 Z M 0.496094 0 " fill-opacity="1" fill-rule="nonzero"/></g><g transform="matrix(1, 0, 0, 1, 7, 54)"><g clip-path="url(#ac00910fa2)"><g clip-path="url(#ee548c5efe)"><g clip-path="url(#c2545c69b1)"><g transform="matrix(1, 0, 0, 1, -0.000000000000001776, -0.000000000000014211)"><g clip-path="url(#14bf35fab3)"><g clip-path="url(#d43a40da59)"><g clip-path="url(#ee8ed5cc6d)"><path fill="#d3dedd" d="M 0.195312 0.457031 L 120.757812 0.457031 L 120.757812 25.550781 L 0.195312 25.550781 Z M 0.195312 0.457031 " fill-opacity="1" fill-rule="nonzero"/></g></g></g></g></g></g><g fill="#223628" fill-opacity="1"><g transform="translate(18.585703, 16.572461)"><g><path d="M 5.0625 -3.546875 C 5.320312 -3.410156 5.535156 -3.203125 5.703125 -2.921875 C 5.878906 -2.648438 5.96875 -2.359375 5.96875 -2.046875 C 5.96875 -1.660156 5.875 -1.3125 5.6875 -1 C 5.5 -0.695312 5.25 -0.453125 4.9375 -0.265625 C 4.625 -0.0859375 4.273438 0 3.890625 0 L 1.40625 0 C 1.21875 0 1.054688 -0.0625 0.921875 -0.1875 C 0.785156 -0.320312 0.71875 -0.484375 0.71875 -0.671875 L 0.71875 -6.0625 C 0.71875 -6.25 0.785156 -6.40625 0.921875 -6.53125 C 1.054688 -6.664062 1.21875 -6.734375 1.40625 -6.734375 L 3.8125 -6.734375 C 4.164062 -6.734375 4.488281 -6.644531 4.78125 -6.46875 C 5.070312 -6.300781 5.300781 -6.070312 5.46875 -5.78125 C 5.644531 -5.488281 5.734375 -5.164062 5.734375 -4.8125 C 5.734375 -4.5625 5.671875 -4.320312 5.546875 -4.09375 C 5.421875 -3.863281 5.257812 -3.679688 5.0625 -3.546875 Z M 3.71875 -5.359375 L 2.09375 -5.359375 L 2.09375 -4.140625 L 3.71875 -4.140625 C 3.894531 -4.140625 4.046875 -4.203125 4.171875 -4.328125 C 4.296875 -4.453125 4.359375 -4.597656 4.359375 -4.765625 C 4.359375 -4.941406 4.289062 -5.082031 4.15625 -5.1875 C 4.03125 -5.300781 3.882812 -5.359375 3.71875 -5.359375 Z M 2.09375 -1.359375 L 3.84375 -1.359375 C 4.03125 -1.359375 4.203125 -1.425781 4.359375 -1.5625 C 4.515625 -1.707031 4.59375 -1.878906 4.59375 -2.078125 C 4.59375 -2.285156 4.515625 -2.453125 4.359375 -2.578125 C 4.203125 -2.710938 4.03125 -2.78125 3.84375 -2.78125 L 2.09375 -2.78125 Z M 2.09375 -1.359375 "/></g></g></g><g fill="#223628" fill-opacity="1"><g transform="translate(24.844244, 16.572461)"><g><path d="M 4.765625 -2.390625 L 5.6875 -1.109375 C 5.832031 -0.910156 5.898438 -0.722656 5.890625 -0.546875 C 5.878906 -0.367188 5.804688 -0.234375 5.671875 -0.140625 C 5.523438 -0.0234375 5.351562 0.03125 5.15625 0.03125 C 4.957031 0.03125 4.789062 -0.0546875 4.65625 -0.234375 L 3.40625 -1.984375 C 3.351562 -1.972656 3.296875 -1.96875 3.234375 -1.96875 C 3.171875 -1.96875 3.109375 -1.96875 3.046875 -1.96875 L 2.109375 -1.96875 L 2.109375 -0.671875 C 2.109375 -0.492188 2.035156 -0.335938 1.890625 -0.203125 C 1.753906 -0.0664062 1.59375 0 1.40625 0 C 1.21875 0 1.054688 -0.0664062 0.921875 -0.203125 C 0.785156 -0.335938 0.71875 -0.492188 0.71875 -0.671875 L 0.71875 -6.0625 C 0.71875 -6.238281 0.785156 -6.394531 0.921875 -6.53125 C 1.054688 -6.664062 1.21875 -6.734375 1.40625 -6.734375 L 3.265625 -6.734375 C 3.734375 -6.734375 4.160156 -6.625 4.546875 -6.40625 C 4.929688 -6.1875 5.238281 -5.894531 5.46875 -5.53125 C 5.707031 -5.175781 5.828125 -4.773438 5.828125 -4.328125 C 5.828125 -3.859375 5.726562 -3.460938 5.53125 -3.140625 C 5.332031 -2.828125 5.078125 -2.578125 4.765625 -2.390625 Z M 2.109375 -5.46875 L 2.109375 -3.234375 L 3.265625 -3.234375 C 3.617188 -3.234375 3.90625 -3.332031 4.125 -3.53125 C 4.34375 -3.738281 4.453125 -4.003906 4.453125 -4.328125 C 4.453125 -4.648438 4.34375 -4.921875 4.125 -5.140625 C 3.914062 -5.359375 3.632812 -5.46875 3.28125 -5.46875 Z M 2.109375 -5.46875 "/></g></g></g><g fill="#223628" fill-opacity="1"><g transform="translate(31.113304, 16.572461)"><g><path d="M 1.40625 0 C 1.21875 0 1.054688 -0.0664062 0.921875 -0.203125 C 0.785156 -0.335938 0.71875 -0.492188 0.71875 -0.671875 L 0.71875 -6.0625 C 0.71875 -6.25 0.785156 -6.40625 0.921875 -6.53125 C 1.054688 -6.664062 1.21875 -6.734375 1.40625 -6.734375 C 1.59375 -6.734375 1.753906 -6.664062 1.890625 -6.53125 C 2.035156 -6.40625 2.109375 -6.25 2.109375 -6.0625 L 2.109375 -0.671875 C 2.109375 -0.492188 2.035156 -0.335938 1.890625 -0.203125 C 1.753906 -0.0664062 1.59375 0 1.40625 0 Z M 1.40625 0 "/></g></g></g><g fill="#223628" fill-opacity="1"><g transform="translate(33.942795, 16.572461)"><g><path d="M 3.828125 0.09375 C 3.367188 0.09375 2.929688 0.00390625 2.515625 -0.171875 C 2.109375 -0.359375 1.75 -0.609375 1.4375 -0.921875 C 1.132812 -1.242188 0.890625 -1.613281 0.703125 -2.03125 C 0.523438 -2.445312 0.4375 -2.890625 0.4375 -3.359375 C 0.4375 -3.804688 0.519531 -4.238281 0.6875 -4.65625 C 0.863281 -5.070312 1.097656 -5.441406 1.390625 -5.765625 C 1.691406 -6.085938 2.046875 -6.34375 2.453125 -6.53125 C 2.859375 -6.726562 3.300781 -6.828125 3.78125 -6.828125 C 4.25 -6.828125 4.675781 -6.753906 5.0625 -6.609375 C 5.445312 -6.472656 5.8125 -6.242188 6.15625 -5.921875 C 6.300781 -5.796875 6.382812 -5.644531 6.40625 -5.46875 C 6.4375 -5.289062 6.398438 -5.128906 6.296875 -4.984375 C 6.179688 -4.835938 6.03125 -4.765625 5.84375 -4.765625 C 5.65625 -4.773438 5.484375 -4.832031 5.328125 -4.9375 C 5.117188 -5.125 4.890625 -5.269531 4.640625 -5.375 C 4.398438 -5.476562 4.132812 -5.53125 3.84375 -5.53125 C 3.476562 -5.53125 3.140625 -5.441406 2.828125 -5.265625 C 2.515625 -5.085938 2.265625 -4.832031 2.078125 -4.5 C 1.898438 -4.175781 1.8125 -3.796875 1.8125 -3.359375 C 1.8125 -2.972656 1.894531 -2.613281 2.0625 -2.28125 C 2.238281 -1.957031 2.476562 -1.695312 2.78125 -1.5 C 3.09375 -1.300781 3.441406 -1.203125 3.828125 -1.203125 C 4.128906 -1.203125 4.398438 -1.253906 4.640625 -1.359375 C 4.890625 -1.460938 5.117188 -1.601562 5.328125 -1.78125 C 5.472656 -1.894531 5.640625 -1.953125 5.828125 -1.953125 C 6.023438 -1.960938 6.179688 -1.894531 6.296875 -1.75 C 6.398438 -1.601562 6.4375 -1.4375 6.40625 -1.25 C 6.382812 -1.070312 6.300781 -0.921875 6.15625 -0.796875 C 5.8125 -0.484375 5.445312 -0.253906 5.0625 -0.109375 C 4.675781 0.0234375 4.265625 0.09375 3.828125 0.09375 Z M 3.828125 0.09375 "/></g></g></g><g fill="#223628" fill-opacity="1"><g transform="translate(40.800895, 16.572461)"><g><path d="M 3.9375 -3.75 L 6.03125 -1.171875 C 6.144531 -1.015625 6.207031 -0.835938 6.21875 -0.640625 C 6.226562 -0.453125 6.160156 -0.296875 6.015625 -0.171875 C 5.867188 -0.0546875 5.707031 0 5.53125 0 C 5.351562 0.0078125 5.207031 -0.0546875 5.09375 -0.203125 L 2.984375 -2.8125 L 2.109375 -2.015625 L 2.109375 -0.671875 C 2.109375 -0.492188 2.035156 -0.335938 1.890625 -0.203125 C 1.753906 -0.0664062 1.59375 0 1.40625 0 C 1.21875 0 1.054688 -0.0664062 0.921875 -0.203125 C 0.785156 -0.335938 0.71875 -0.492188 0.71875 -0.671875 L 0.71875 -6.0625 C 0.71875 -6.25 0.785156 -6.40625 0.921875 -6.53125 C 1.054688 -6.664062 1.21875 -6.734375 1.40625 -6.734375 C 1.59375 -6.734375 1.753906 -6.664062 1.890625 -6.53125 C 2.035156 -6.40625 2.109375 -6.25 2.109375 -6.0625 L 2.109375 -3.78125 L 4.859375 -6.546875 C 4.984375 -6.691406 5.140625 -6.753906 5.328125 -6.734375 C 5.523438 -6.722656 5.691406 -6.648438 5.828125 -6.515625 C 5.953125 -6.378906 6.003906 -6.21875 5.984375 -6.03125 C 5.972656 -5.851562 5.898438 -5.691406 5.765625 -5.546875 Z M 3.9375 -3.75 "/></g></g></g><g fill="#223628" fill-opacity="1"><g transform="translate(47.259293, 16.572461)"><g><path d="M 2.65625 0.09375 C 2.289062 0.09375 1.960938 0.0390625 1.671875 -0.0625 C 1.378906 -0.175781 1.132812 -0.316406 0.9375 -0.484375 C 0.738281 -0.660156 0.582031 -0.832031 0.46875 -1 C 0.363281 -1.144531 0.320312 -1.296875 0.34375 -1.453125 C 0.375 -1.609375 0.441406 -1.738281 0.546875 -1.84375 C 0.660156 -1.945312 0.804688 -2 0.984375 -2 C 1.066406 -2 1.15625 -1.976562 1.25 -1.9375 C 1.351562 -1.90625 1.453125 -1.832031 1.546875 -1.71875 C 1.660156 -1.570312 1.820312 -1.445312 2.03125 -1.34375 C 2.238281 -1.25 2.492188 -1.203125 2.796875 -1.203125 C 3.066406 -1.203125 3.289062 -1.257812 3.46875 -1.375 C 3.644531 -1.5 3.734375 -1.703125 3.734375 -1.984375 C 3.734375 -2.191406 3.632812 -2.359375 3.4375 -2.484375 C 3.25 -2.609375 2.96875 -2.738281 2.59375 -2.875 C 2.21875 -3.019531 1.875 -3.171875 1.5625 -3.328125 C 1.257812 -3.492188 1.015625 -3.703125 0.828125 -3.953125 C 0.648438 -4.210938 0.5625 -4.539062 0.5625 -4.9375 C 0.5625 -5.34375 0.65625 -5.6875 0.84375 -5.96875 C 1.03125 -6.25 1.285156 -6.460938 1.609375 -6.609375 C 1.929688 -6.753906 2.289062 -6.828125 2.6875 -6.828125 C 3.09375 -6.828125 3.488281 -6.742188 3.875 -6.578125 C 4.269531 -6.421875 4.566406 -6.175781 4.765625 -5.84375 C 4.835938 -5.71875 4.851562 -5.585938 4.8125 -5.453125 C 4.769531 -5.316406 4.710938 -5.207031 4.640625 -5.125 C 4.546875 -5.039062 4.414062 -4.988281 4.25 -4.96875 C 4.082031 -4.945312 3.914062 -5.003906 3.75 -5.140625 C 3.445312 -5.410156 3.0625 -5.546875 2.59375 -5.546875 C 2.414062 -5.546875 2.253906 -5.5 2.109375 -5.40625 C 1.972656 -5.3125 1.90625 -5.164062 1.90625 -4.96875 C 1.90625 -4.71875 2.003906 -4.53125 2.203125 -4.40625 C 2.398438 -4.289062 2.617188 -4.1875 2.859375 -4.09375 C 3.285156 -3.945312 3.664062 -3.785156 4 -3.609375 C 4.34375 -3.429688 4.609375 -3.210938 4.796875 -2.953125 C 4.992188 -2.703125 5.09375 -2.378906 5.09375 -1.984375 C 5.09375 -1.597656 4.988281 -1.25 4.78125 -0.9375 C 4.582031 -0.625 4.296875 -0.375 3.921875 -0.1875 C 3.554688 0 3.132812 0.09375 2.65625 0.09375 Z M 2.65625 0.09375 "/></g></g></g><g fill="#223628" fill-opacity="1"><g transform="translate(52.844646, 16.572461)"><g/></g></g><g fill="#223628" fill-opacity="1"><g transform="translate(55.37962, 16.572461)"><g><path d="M 5.421875 -1.78125 L 6.15625 -1.125 C 6.34375 -0.96875 6.445312 -0.804688 6.46875 -0.640625 C 6.488281 -0.484375 6.453125 -0.347656 6.359375 -0.234375 C 6.222656 -0.0546875 6.066406 0.0351562 5.890625 0.046875 C 5.722656 0.0664062 5.5625 0.015625 5.40625 -0.109375 L 4.515625 -0.875 L 4.171875 -0.515625 C 3.972656 -0.316406 3.734375 -0.164062 3.453125 -0.0625 C 3.171875 0.0390625 2.878906 0.09375 2.578125 0.09375 C 2.171875 0.09375 1.789062 0.015625 1.4375 -0.140625 C 1.09375 -0.304688 0.816406 -0.535156 0.609375 -0.828125 C 0.398438 -1.128906 0.296875 -1.484375 0.296875 -1.890625 C 0.296875 -2.171875 0.347656 -2.414062 0.453125 -2.625 C 0.554688 -2.84375 0.691406 -3.03125 0.859375 -3.1875 C 1.023438 -3.351562 1.191406 -3.488281 1.359375 -3.59375 C 1.234375 -3.738281 1.117188 -3.910156 1.015625 -4.109375 C 0.910156 -4.316406 0.859375 -4.566406 0.859375 -4.859375 C 0.859375 -5.203125 0.941406 -5.515625 1.109375 -5.796875 C 1.273438 -6.078125 1.5 -6.300781 1.78125 -6.46875 C 2.070312 -6.644531 2.390625 -6.734375 2.734375 -6.734375 C 3.085938 -6.734375 3.40625 -6.644531 3.6875 -6.46875 C 3.96875 -6.300781 4.191406 -6.070312 4.359375 -5.78125 C 4.523438 -5.5 4.609375 -5.1875 4.609375 -4.84375 C 4.609375 -4.5 4.519531 -4.203125 4.34375 -3.953125 C 4.175781 -3.703125 3.945312 -3.492188 3.65625 -3.328125 L 4.421875 -2.65625 L 5.15625 -3.421875 C 5.300781 -3.554688 5.460938 -3.628906 5.640625 -3.640625 C 5.828125 -3.648438 5.988281 -3.582031 6.125 -3.4375 C 6.257812 -3.300781 6.328125 -3.140625 6.328125 -2.953125 C 6.328125 -2.773438 6.257812 -2.617188 6.125 -2.484375 Z M 2.78125 -5.421875 C 2.632812 -5.421875 2.503906 -5.363281 2.390625 -5.25 C 2.285156 -5.132812 2.234375 -5.003906 2.234375 -4.859375 C 2.234375 -4.734375 2.257812 -4.628906 2.3125 -4.546875 C 2.375 -4.460938 2.4375 -4.394531 2.5 -4.34375 C 2.507812 -4.332031 2.515625 -4.320312 2.515625 -4.3125 C 2.523438 -4.3125 2.535156 -4.304688 2.546875 -4.296875 L 2.78125 -4.09375 C 2.925781 -4.164062 3.0625 -4.257812 3.1875 -4.375 C 3.3125 -4.5 3.375 -4.644531 3.375 -4.8125 C 3.375 -5 3.316406 -5.144531 3.203125 -5.25 C 3.085938 -5.363281 2.945312 -5.421875 2.78125 -5.421875 Z M 3.359375 -1.578125 L 3.515625 -1.734375 L 2.265625 -2.8125 C 2.117188 -2.726562 1.984375 -2.617188 1.859375 -2.484375 C 1.742188 -2.347656 1.6875 -2.179688 1.6875 -1.984375 C 1.6875 -1.742188 1.769531 -1.546875 1.9375 -1.390625 C 2.101562 -1.242188 2.316406 -1.171875 2.578125 -1.171875 C 2.773438 -1.171875 2.929688 -1.21875 3.046875 -1.3125 C 3.171875 -1.40625 3.273438 -1.492188 3.359375 -1.578125 Z M 3.359375 -1.578125 "/></g></g></g><g fill="#223628" fill-opacity="1"><g transform="translate(61.638161, 16.572461)"><g/></g></g><g fill="#223628" fill-opacity="1"><g transform="translate(64.173136, 16.572461)"><g><path d="M 8.28125 -6.6875 C 8.457031 -6.613281 8.582031 -6.488281 8.65625 -6.3125 C 8.726562 -6.144531 8.726562 -5.972656 8.65625 -5.796875 L 6.640625 -0.5 C 6.566406 -0.28125 6.457031 -0.128906 6.3125 -0.046875 C 6.164062 0.0351562 6.023438 0.078125 5.890625 0.078125 C 5.734375 0.078125 5.59375 0.0351562 5.46875 -0.046875 C 5.351562 -0.140625 5.265625 -0.269531 5.203125 -0.4375 L 4.4375 -2.421875 L 3.71875 -0.4375 C 3.601562 -0.09375 3.375 0.078125 3.03125 0.078125 C 2.875 0.078125 2.722656 0.0351562 2.578125 -0.046875 C 2.429688 -0.140625 2.320312 -0.289062 2.25 -0.5 L 0.28125 -5.75 C 0.207031 -5.957031 0.191406 -6.140625 0.234375 -6.296875 C 0.285156 -6.453125 0.410156 -6.578125 0.609375 -6.671875 C 0.796875 -6.753906 0.984375 -6.757812 1.171875 -6.6875 C 1.367188 -6.613281 1.5 -6.472656 1.5625 -6.265625 L 3.015625 -2 L 4.5 -6.25 C 4.570312 -6.457031 4.703125 -6.597656 4.890625 -6.671875 C 5.078125 -6.753906 5.253906 -6.757812 5.421875 -6.6875 C 5.597656 -6.613281 5.722656 -6.484375 5.796875 -6.296875 C 5.867188 -6.117188 5.859375 -5.925781 5.765625 -5.71875 L 5.109375 -4.09375 L 5.90625 -2 L 7.375 -6.3125 C 7.425781 -6.488281 7.546875 -6.613281 7.734375 -6.6875 C 7.921875 -6.757812 8.101562 -6.757812 8.28125 -6.6875 Z M 8.28125 -6.6875 "/></g></g></g><g fill="#223628" fill-opacity="1"><g transform="translate(73.092873, 16.572461)"><g><path d="M 3.921875 0.09375 C 3.441406 0.09375 2.992188 0.00390625 2.578125 -0.171875 C 2.160156 -0.347656 1.789062 -0.59375 1.46875 -0.90625 C 1.144531 -1.226562 0.890625 -1.597656 0.703125 -2.015625 C 0.523438 -2.429688 0.4375 -2.878906 0.4375 -3.359375 C 0.4375 -3.828125 0.523438 -4.269531 0.703125 -4.6875 C 0.890625 -5.113281 1.144531 -5.484375 1.46875 -5.796875 C 1.789062 -6.117188 2.160156 -6.367188 2.578125 -6.546875 C 2.992188 -6.734375 3.441406 -6.828125 3.921875 -6.828125 C 4.390625 -6.828125 4.835938 -6.734375 5.265625 -6.546875 C 5.691406 -6.367188 6.066406 -6.117188 6.390625 -5.796875 C 6.710938 -5.484375 6.96875 -5.113281 7.15625 -4.6875 C 7.34375 -4.269531 7.4375 -3.828125 7.4375 -3.359375 C 7.4375 -2.878906 7.34375 -2.429688 7.15625 -2.015625 C 6.96875 -1.597656 6.710938 -1.226562 6.390625 -0.90625 C 6.066406 -0.59375 5.691406 -0.347656 5.265625 -0.171875 C 4.835938 0.00390625 4.390625 0.09375 3.921875 0.09375 Z M 3.921875 -1.203125 C 4.328125 -1.203125 4.691406 -1.289062 5.015625 -1.46875 C 5.335938 -1.65625 5.59375 -1.910156 5.78125 -2.234375 C 5.96875 -2.566406 6.0625 -2.941406 6.0625 -3.359375 C 6.0625 -3.773438 5.96875 -4.144531 5.78125 -4.46875 C 5.59375 -4.800781 5.335938 -5.0625 5.015625 -5.25 C 4.691406 -5.445312 4.328125 -5.546875 3.921875 -5.546875 C 3.523438 -5.546875 3.164062 -5.445312 2.84375 -5.25 C 2.519531 -5.0625 2.265625 -4.800781 2.078125 -4.46875 C 1.898438 -4.144531 1.8125 -3.773438 1.8125 -3.359375 C 1.8125 -2.941406 1.898438 -2.566406 2.078125 -2.234375 C 2.265625 -1.910156 2.519531 -1.65625 2.84375 -1.46875 C 3.164062 -1.289062 3.523438 -1.203125 3.921875 -1.203125 Z M 3.921875 -1.203125 "/></g></g></g><g fill="#223628" fill-opacity="1"><g transform="translate(80.960757, 16.572461)"><g><path d="M 3.921875 0.09375 C 3.441406 0.09375 2.992188 0.00390625 2.578125 -0.171875 C 2.160156 -0.347656 1.789062 -0.59375 1.46875 -0.90625 C 1.144531 -1.226562 0.890625 -1.597656 0.703125 -2.015625 C 0.523438 -2.429688 0.4375 -2.878906 0.4375 -3.359375 C 0.4375 -3.828125 0.523438 -4.269531 0.703125 -4.6875 C 0.890625 -5.113281 1.144531 -5.484375 1.46875 -5.796875 C 1.789062 -6.117188 2.160156 -6.367188 2.578125 -6.546875 C 2.992188 -6.734375 3.441406 -6.828125 3.921875 -6.828125 C 4.390625 -6.828125 4.835938 -6.734375 5.265625 -6.546875 C 5.691406 -6.367188 6.066406 -6.117188 6.390625 -5.796875 C 6.710938 -5.484375 6.96875 -5.113281 7.15625 -4.6875 C 7.34375 -4.269531 7.4375 -3.828125 7.4375 -3.359375 C 7.4375 -2.878906 7.34375 -2.429688 7.15625 -2.015625 C 6.96875 -1.597656 6.710938 -1.226562 6.390625 -0.90625 C 6.066406 -0.59375 5.691406 -0.347656 5.265625 -0.171875 C 4.835938 0.00390625 4.390625 0.09375 3.921875 0.09375 Z M 3.921875 -1.203125 C 4.328125 -1.203125 4.691406 -1.289062 5.015625 -1.46875 C 5.335938 -1.65625 5.59375 -1.910156 5.78125 -2.234375 C 5.96875 -2.566406 6.0625 -2.941406 6.0625 -3.359375 C 6.0625 -3.773438 5.96875 -4.144531 5.78125 -4.46875 C 5.59375 -4.800781 5.335938 -5.0625 5.015625 -5.25 C 4.691406 -5.445312 4.328125 -5.546875 3.921875 -5.546875 C 3.523438 -5.546875 3.164062 -5.445312 2.84375 -5.25 C 2.519531 -5.0625 2.265625 -4.800781 2.078125 -4.46875 C 1.898438 -4.144531 1.8125 -3.773438 1.8125 -3.359375 C 1.8125 -2.941406 1.898438 -2.566406 2.078125 -2.234375 C 2.265625 -1.910156 2.519531 -1.65625 2.84375 -1.46875 C 3.164062 -1.289062 3.523438 -1.203125 3.921875 -1.203125 Z M 3.921875 -1.203125 "/></g></g></g><g fill="#223628" fill-opacity="1"><g transform="translate(88.828641, 16.572461)"><g><path d="M 1.40625 -6.734375 L 3.21875 -6.734375 C 3.675781 -6.734375 4.109375 -6.644531 4.515625 -6.46875 C 4.929688 -6.289062 5.296875 -6.046875 5.609375 -5.734375 C 5.929688 -5.421875 6.179688 -5.0625 6.359375 -4.65625 C 6.546875 -4.25 6.640625 -3.816406 6.640625 -3.359375 C 6.640625 -2.890625 6.546875 -2.453125 6.359375 -2.046875 C 6.179688 -1.640625 5.929688 -1.285156 5.609375 -0.984375 C 5.296875 -0.679688 4.929688 -0.441406 4.515625 -0.265625 C 4.109375 -0.0859375 3.675781 0 3.21875 0 L 1.40625 0 C 1.21875 0 1.054688 -0.0664062 0.921875 -0.203125 C 0.785156 -0.335938 0.71875 -0.492188 0.71875 -0.671875 L 0.71875 -6.0625 C 0.71875 -6.25 0.785156 -6.40625 0.921875 -6.53125 C 1.054688 -6.664062 1.21875 -6.734375 1.40625 -6.734375 Z M 2.109375 -1.265625 L 3.25 -1.265625 C 3.644531 -1.265625 3.992188 -1.351562 4.296875 -1.53125 C 4.609375 -1.71875 4.847656 -1.96875 5.015625 -2.28125 C 5.179688 -2.601562 5.265625 -2.960938 5.265625 -3.359375 C 5.265625 -3.765625 5.179688 -4.125 5.015625 -4.4375 C 4.847656 -4.75 4.609375 -5 4.296875 -5.1875 C 3.992188 -5.375 3.644531 -5.46875 3.25 -5.46875 L 2.109375 -5.46875 Z M 2.109375 -1.265625 "/></g></g></g><g fill="#223628" fill-opacity="1"><g transform="translate(95.907634, 16.572461)"><g><path d="M 2.65625 0.09375 C 2.289062 0.09375 1.960938 0.0390625 1.671875 -0.0625 C 1.378906 -0.175781 1.132812 -0.316406 0.9375 -0.484375 C 0.738281 -0.660156 0.582031 -0.832031 0.46875 -1 C 0.363281 -1.144531 0.320312 -1.296875 0.34375 -1.453125 C 0.375 -1.609375 0.441406 -1.738281 0.546875 -1.84375 C 0.660156 -1.945312 0.804688 -2 0.984375 -2 C 1.066406 -2 1.15625 -1.976562 1.25 -1.9375 C 1.351562 -1.90625 1.453125 -1.832031 1.546875 -1.71875 C 1.660156 -1.570312 1.820312 -1.445312 2.03125 -1.34375 C 2.238281 -1.25 2.492188 -1.203125 2.796875 -1.203125 C 3.066406 -1.203125 3.289062 -1.257812 3.46875 -1.375 C 3.644531 -1.5 3.734375 -1.703125 3.734375 -1.984375 C 3.734375 -2.191406 3.632812 -2.359375 3.4375 -2.484375 C 3.25 -2.609375 2.96875 -2.738281 2.59375 -2.875 C 2.21875 -3.019531 1.875 -3.171875 1.5625 -3.328125 C 1.257812 -3.492188 1.015625 -3.703125 0.828125 -3.953125 C 0.648438 -4.210938 0.5625 -4.539062 0.5625 -4.9375 C 0.5625 -5.34375 0.65625 -5.6875 0.84375 -5.96875 C 1.03125 -6.25 1.285156 -6.460938 1.609375 -6.609375 C 1.929688 -6.753906 2.289062 -6.828125 2.6875 -6.828125 C 3.09375 -6.828125 3.488281 -6.742188 3.875 -6.578125 C 4.269531 -6.421875 4.566406 -6.175781 4.765625 -5.84375 C 4.835938 -5.71875 4.851562 -5.585938 4.8125 -5.453125 C 4.769531 -5.316406 4.710938 -5.207031 4.640625 -5.125 C 4.546875 -5.039062 4.414062 -4.988281 4.25 -4.96875 C 4.082031 -4.945312 3.914062 -5.003906 3.75 -5.140625 C 3.445312 -5.410156 3.0625 -5.546875 2.59375 -5.546875 C 2.414062 -5.546875 2.253906 -5.5 2.109375 -5.40625 C 1.972656 -5.3125 1.90625 -5.164062 1.90625 -4.96875 C 1.90625 -4.71875 2.003906 -4.53125 2.203125 -4.40625 C 2.398438 -4.289062 2.617188 -4.1875 2.859375 -4.09375 C 3.285156 -3.945312 3.664062 -3.785156 4 -3.609375 C 4.34375 -3.429688 4.609375 -3.210938 4.796875 -2.953125 C 4.992188 -2.703125 5.09375 -2.378906 5.09375 -1.984375 C 5.09375 -1.597656 4.988281 -1.25 4.78125 -0.9375 C 4.582031 -0.625 4.296875 -0.375 3.921875 -0.1875 C 3.554688 0 3.132812 0.09375 2.65625 0.09375 Z M 2.65625 0.09375 "/></g></g></g><g clip-path="url(#e54cbac554)"><g clip-path="url(#28047b2f5a)"><g transform="matrix(1, 0, 0, 1, 4, 3)"><g clip-path="url(#2bb1d3e6c3)"><g clip-path="url(#6d26c6f8be)"><g clip-path="url(#79ae67e518)"><path fill="#223628" d="M 0.304688 0.808594 L 3.808594 0.808594 L 3.808594 4.3125 L 0.304688 4.3125 Z M 0.304688 0.808594 " fill-opacity="1" fill-rule="nonzero"/></g></g></g></g></g></g><g clip-path="url(#1c229329b6)"><g clip-path="url(#e0b42f9289)"><g transform="matrix(1, 0, 0, 1, 114, 18)"><g clip-path="url(#88fd670e49)"><g clip-path="url(#33fb17cc36)"><g clip-path="url(#1783d1c210)"><path fill="#223628" d="M 0.0820312 0.136719 L 3.582031 0.136719 L 3.582031 3.640625 L 0.0820312 3.640625 Z M 0.0820312 0.136719 " fill-opacity="1" fill-rule="nonzero"/></g></g></g></g></g></g></g></g></svg>